# xmcd
#
# Track frame offsets: 
#        150
#        15610
#        34575
#        53842
#        74229
#        95054
#        110431
#        127556
#        146719
#        165881
#        184204
#        203389
#        226211
#        242812
#        260220
#        276480
#        296192
#        315904
#
# Disc length: 4470 seconds
#
# Revision: 0
# Processed by: cddbd v1.5.2PL0 Copyright (c) Steve Scherf et al.
# Submitted via: ExactAudioCopy v1.0b3
#
DISCID=06117412
DTITLE=Joe Cocker - The Best
DYEAR=2002
DGENRE=Blues
TTITLE0=Night Calls
TTITLE1=Hell And Highwater
TTITLE2=A Woman Loves A Man
TTITLE3=Angeline
TTITLE4=The One
TTITLE5=Satisfied
TTITLE6=Summer In The Sity
TTITLE7=Trust In Me
TTITLE8=Have A Little Faith In Me
TTITLE9=Two Wrongs
TTITLE10=Let The Healing Begin
TTITLE11=Unchain My Heart
TTITLE12=I Can Hear The River
TTITLE13=Isolation
TTITLE14=The Great Didide
TTITLE15=Shelter Me
TTITLE16=I Stand In Wonder
TTITLE17=Now That You're Gone
EXTD=
EXTT0=
EXTT1=
EXTT2=
EXTT3=
EXTT4=
EXTT5=
EXTT6=
EXTT7=
EXTT8=
EXTT9=
EXTT10=
EXTT11=
EXTT12=
EXTT13=
EXTT14=
EXTT15=
EXTT16=
EXTT17=
PLAYORDER=
